<?xml version="1.0" encoding="utf-8"?>
<!-- Generator: Adobe Illustrator 18.1.1, SVG Export Plug-In . SVG Version: 6.00 Build 0)  -->
<svg version="1.1" id="Layer_1" xmlns="http://www.w3.org/2000/svg" xmlns:xlink="http://www.w3.org/1999/xlink" x="0px" y="0px"
	 viewBox="0 0 118.5 89.1" enable-background="new 0 0 118.5 89.1" xml:space="preserve">
<g>
	<path fill="#164193" d="M65.9,49.5c-0.4,0.3-2.8,1.9-4.6,1.9c-1.8,0-2.1-1.8-2.1-2.6c0-0.6,0.1-1.1,0.3-1.7c-3,1.6-5.2,2.7-6.2,2.7
		c-0.9,0-1.4-0.2-1.4-1c0-1.6,1.6-2.4,3.7-6.1c0.3-0.6,0-0.6-0.6-0.1c-3.1,2.1-8,6.1-8.3,6.7c-0.5,1-1.2,1.3-1.8,1.3
		c-0.4,0-1.1-0.3-1.1-1c0-1.1,0.6-1.4,2.5-4.7c-4.3,3-8.7,5.5-10.9,5.5c-0.8,0-1.7-0.3-1.7-1.1c0-1.2,0.8-2.5,6.6-8.3
		c-2.8,0.8-6.3,1.5-10.6,2.2c-1.7,3.3-3.8,6.8-6.2,10.6c-1,1.5-1.9,1.3-1.9,0.2c0-0.9,0.3-0.5,0.7-1.1c1.8-2.9,3.7-6.1,5.3-9.3
		c-3.4,0.5-7.2,1.1-11.6,1.7c-3.8,0.5-12.6,1.3-14.7,1.8c0,0.3,0,0.6-0.4,0.6c-0.4,0-1.1-0.5-1.1-1c0-0.4,0.2-0.7,0.8-0.9
		c1.1-0.3,5.9-1,7.9-1.2c1.6-0.3,6.8-0.8,8.7-1c2.9-0.3,7.3-0.8,11-1.3c1.6-3.2,3-6.4,3.9-9.4c-5,0.6-11.5,1.4-16.5,1.7
		c-1.1,0.1-1.3,0.3-0.7,0.8c0.8,0.8,0.8,1.3,0.6,1.3c-0.3,0-0.7-0.3-1.4-0.7c-1-0.6-2-1.1-2-1.7c0-1.3,3-1.3,5.8-1.6l14.7-1.3
		c0.2-0.7,0.4-1.4,0.6-2.1c0.2-0.8,0-1,0.2-1.6c0.2-0.4,0.5-0.8,1.1-0.8c1.8,0,1.3,2,0.8,3.5c-0.1,0.3-0.2,0.6-0.3,0.8
		c10.6-1.1,14.9-1.6,23.4-2.7c0.3-0.1,0.5,0.1,0.5,0.1c0,0.2-0.4,0.4-1,0.5c-3.2,0.8-15.1,2.5-23.4,3.5c-1.1,3-2.5,6.1-4.2,9.4
		c0.9-0.1,1.8-0.3,2.5-0.4c3.3-0.6,5.4-1.1,6.7-1.5c1.6-0.4,2.2-0.7,2.8-0.7c0.5,0,1,0.4,1,1c0,0.6-0.9,1.2-1.7,1.8
		c-1,0.8-4.1,4-5.6,5.7c-0.6,0.7-1.1,1.6-0.2,1.6c2.8,0,11.1-5.8,13.2-8.7c0.4-0.5,0.7-0.8,1.2-0.8c0.6,0,0.9,0.6,0.9,0.9
		c0,0.3-0.3,0.6-0.8,1.2c-0.6,0.7-2.5,3.4-3.4,5.5c3-2.9,6.3-5.2,7-5.7c1.2-0.9,1.7-1.6,2.5-1.6c0.7,0,1.8,0.8,1.8,1.5
		c0,1.1-0.7,1.6-3.8,6.1c-0.4,0.6-0.2,1.1,1.3,0.4c1.1-0.5,2.5-1.2,3.9-2c1.7-3.9,6.6-8.5,10.7-12c3.2-2.7,6.7-4.9,9.4-6.6
		c0.3-0.1,0.5-0.4,0.7-0.5c0.5-0.3,1.2-0.6,1.6-0.8c0.5-0.3,0.7-0.5,1.2-0.6c2.1-0.8,3.6-0.3,3.6,0.8c0,0.8-0.7,2-2.3,3.6
		c-1.9,1.9-7.3,5.9-13.2,9.7c-3.2,2.1-6.6,4.2-9.5,6c-0.8,1.2-1.2,2.3-1.2,3.3c0,0.8,0.3,1.3,1.1,1.3c1,0,2.8-0.9,3.7-1.6
		C66.5,48,66.9,48.8,65.9,49.5z M8.7,21.1c0-2.6,2-4.7,4.7-6.1c2.9-1.6,6.5-2.8,9.2-3.2c0.5-0.1,0.6,0,0.6,0.2
		c0,0.1-0.4,0.4-1.2,0.5c-2.4,0.5-5.8,1.8-8.3,3.3c-2.4,1.4-3.9,3.1-3.9,5.1c0,2.6,3.7,3.9,7.7,3.9c7.4,0,15.4-3.8,15.4-9.8
		c0-3.3-3.6-5.4-3.6-8.9c0-3.3,3.5-5.7,7.9-5.7c2.5,0,5,0.6,5,1.3c0,0.2-0.2,0.3-0.6,0.2C41,1.7,39.6,1.4,38,1.4
		c-3.9,0-6.6,2.1-6.6,4.6c0,0.6,0.1,1.1,0.4,1.7c0.1,0.2,0.3,0.5,0.4,0.7c1.1,1.8,2.9,3.5,2.9,6.8c0,6.5-8.6,11.5-17.6,11.5
		C12.3,26.6,8.7,24.2,8.7,21.1z M21.1,64.4l6.8-4.4v28H21L21.1,64.4z M63.4,74.1c0,8.1-6.6,14.7-14.7,14.7c-8,0-14.7-6.6-14.7-14.7
		c0-8,6.6-14.6,14.7-14.6C56.8,59.5,63.4,66.1,63.4,74.1z M41.8,12.2c0.5-0.5,0.6-0.9,1-1.2c0.4-0.4,0.9-0.6,1.2-0.7
		c0.3-0.1,0.4,0.1,0.5,0.1c0.7,0,0.4,0.8-0.5,1.7c-1,1-2.7,3.3-3.5,4.7c-0.6,1-0.8,1.7-0.8,2.1c0,0.5,0.2,0.8,0.6,0.8
		c0.3,0,0.7-0.1,1.2-0.4c0.5-0.2,2.8-1.9,3.6-2.6c0.9-1.6,2.1-4,3.5-5.4c0.6-0.7,1.1-0.9,1.7-0.9c0.5,0,0.7,0.2,0.7,0.7
		c0,1-1.6,2.9-3.2,4.1c-1,1.6-2.1,3.9-2.1,4.4c0,0.3,0.1,0.4,0.5,0.4c0.6,0,2.1-0.5,3.2-1.2c0.6-0.3,1-0.4,1-0.2
		c0,0.1-0.1,0.3-0.3,0.5c-0.7,0.7-3.1,2-4.7,2c-1.1,0-1.3-0.8-1.3-1.3c0-0.4,0.1-1,0.5-1.8c-0.7,0.8-1.8,1.7-2.9,2.4
		c-0.4,0.2-1.1,0.7-2,0.7c-1.3,0-1.8-0.7-1.8-1.7c0-0.4,0-0.8,0-1.1C38,16.6,40.5,13.4,41.8,12.2z M56.5,74.1c0-4.2-3.5-7.7-7.8-7.7
		c-4.3,0-7.8,3.5-7.8,7.7c0,4.3,3.5,7.7,7.8,7.7C53,81.8,56.5,78.4,56.5,74.1z M46.8,34.4c0.8,0.4,1,0.5,1,0.8
		c0,0.4-0.5,0.6-1.1,0.6c-1.1,0-1.8-0.9-1.8-1.3c0-0.3,0.3-0.6,0.6-0.6C45.9,34,46.5,34.3,46.8,34.4z M51.7,18.2
		c0-1.9,2.7-3.8,4-4.4c0.2-0.1,0.5-0.2,0.7-0.2c0.3,0,0.5,0.2,0.5,0.5c0,0.2-0.1,0.4-0.5,0.6c-0.4,0.2-0.8,0.2-1.2,0.5
		c-1.8,1.1-2,3-1,3c1.8,0,4.7-2.8,4.3-4.6c-0.2,0.1-0.4,0.1-0.6,0.1c-0.4,0-0.9-0.4-0.9-0.9c0-0.5,0.5-1,1.2-1
		c0.6,0,0.9,0.2,1.1,0.6c1.6-0.6,3.3-1.5,4.8-2.3c0.5-0.3,0.8-0.6,1.6-0.6c0.7,0,1.5,0.4,1.5,1.2c0,1.1-0.7,1.5-1.5,3
		c-1.6,3-2.5,4.3-2.7,4.9c2.4-2.8,4-4.8,6.1-6.8c0.7-0.7,1.2-1.3,1.4-1.5c0.4-0.5,0.9-0.6,1.3-0.6c0.6,0,1.1,0.4,1.1,1.2
		c0,0.9-1,3.9-2.1,6.3c2.2-3.1,3.5-5.2,4.6-6.5c0.7-0.8,0.7-1.4,2-1.4c0.9,0,1.5,0.6,1.5,1.7c0,1.8-1.6,4.5-1.5,7
		c0,1.2,0.3,1.6,1.1,1.6c1.6,0,4-1.5,6.1-3.7c0.8-1.9,2.1-3.8,3.3-4.9c1.3-1.2,2.5-0.7,2.5,0.2c0,0.7-0.5,1-1.2,1.5
		c-1.4,1-3.4,4.4-3.4,5.6c0,0.3,0.1,0.4,0.4,0.4c0.4,0,2.3-0.7,3.2-1.1c1.3-0.6,3.1-1.8,4.5-2.4c1.4-0.7,2.7-1.3,3.8-1.4
		c0.5-0.1,0.6,0.2,0.2,0.4c-4.1,1.6-5.1,2.8-8.7,4.8c-1.2,0.7-2.6,1.5-3.5,1.5c-1,0-1.6-0.6-1.6-1.8c0-0.5,0.1-0.9,0.2-1.4
		c-1.7,1.6-3.9,3.5-6.1,3.5c-1.6,0-2.8-0.8-2.8-2.7c0-0.4,0-0.8,0.1-1.1c0-0.2,0.1-0.3,0.1-0.6c0.2-2.1,1.3-3.7,1.3-4.8
		c0-0.8-0.3-1-0.8-0.4c-0.6,0.6-2.9,4.2-4.9,7c-0.7,1-1.3,2-1.6,2.4c-0.3,0.4-0.6,0.7-1,0.7c-0.6,0-1-0.4-1-1c0-0.6,0.6-1.3,1-2.2
		c0.4-0.8,1.7-4.3,1.9-5.4c0.2-0.9-0.1-0.9-1-0.1c-3.2,3.2-3.5,3.9-6.4,7.2c-0.7,0.8-1,0.8-1.5,0.8c-0.4,0-1.1-0.4-1.1-1.1
		c0-1.1,0.4-1.1,1.2-2.6c0.1-0.2,0.3-0.3,0.4-0.5c1-1.8,1.6-3.2,2-4.2c0.1-0.2,0.2-0.4,0.3-0.5c0.1-0.1,0.1-0.3,0.1-0.4
		c0.3-0.5,0-0.7-0.6-0.5c-0.7,0.3-1.9,0.9-4.4,1.9c0,0.2,0.1,0.5,0.1,0.7c0,2.4-3.3,6-6.3,6C52.3,19.7,51.7,19.1,51.7,18.2z
		 M62.8,44.4c2.7-1.6,5.6-3.5,8.3-5.3c5.6-3.7,10.8-7.5,13.2-10.2c0.8-0.8,1.1-1.3,1.1-1.6c0-0.4-0.8-0.3-2.3,0.6
		C77.4,31.2,67.2,38.6,62.8,44.4z M97.2,74.1c0,8.1-6.6,14.7-14.7,14.7s-14.7-6.6-14.7-14.7c0-8,6.6-14.6,14.7-14.6
		S97.2,66.1,97.2,74.1z M117,45.7c0,0.1-0.1,0.4-0.4,0.6c-2,1.7-8,4.6-11.4,4.6c-4.8,0-4.1-4.4-0.8-10c-2.5,2.9-7.1,8.7-9.3,8.7
		c-1.3,0-2.1-0.9-2.1-1.8c0-0.2,0-0.5,0.1-0.8c-2.3,1.6-4,2.6-4.9,2.6c-0.7,0-1.7-0.4-1.7-1.6c0-2,1.1-3.4,2.5-6.3
		c0.5-1.2,0.4-1.7-0.6-0.5c-0.7,0.9-2.5,2.6-3.9,4.1c-0.2,0.2-0.2,0.4-0.4,0.6c-1.3,1.3-2.4,2.2-3.1,2.9c-0.2,0.2,0.1,0.7-0.9,0.7
		c-0.6,0-1.1-0.4-1.1-0.9c0-0.4,0.4-1.5,0.8-2.7c-1.7,1.6-3.6,3.2-5.3,3.2c-1.1,0-1.6-0.9-1.6-1.8c-0.7,0.6-1.7,1.1-2.5,1.1
		c-1.1,0-2.1-0.6-2.1-1.8c0-2.5,3.2-5.3,5.9-6c0.9-0.2,0.9,0.1,1.8,0c0.5-0.1,0.7,0.4,0.7,0.6c0,0.2,0,0.4-0.2,0.5
		c0,0,0.2,0.1,0.2,0.4c0,0.5-1.1,2.6-2.1,3.7c-0.4,1.1-0.2,2.3,0.4,2.3c1.4,0,3.8-2,5.6-4.2c0.5-1.3,1-2.5,1.6-3.4
		c0.9-1.4,1.5-2,2.1-2c0.5,0,1,0.4,1,1c0,0.5-1.1,2.2-1.8,2.9c-0.4,0.7-0.8,1.8-1.7,4.1c1.9-1.9,5.4-5.4,6.4-6.4
		c0.9-1,1.3-1.5,1.9-1.5c0.9,0,1.6,0.8,1.6,1.5c0,0.6-0.3,1.2-0.6,2c-1,2-2.8,4.9-2.8,5.8c0,0.2,0.1,0.3,0.3,0.3
		c0.4,0,2.5-0.9,4.9-2.4c1.5-3,5.8-7,8.1-7c0.6,0,1.1,0.3,1.1,0.7c0,0.5-0.2,0.5-0.8,0.9c-0.3,0.2,0.3,0.2-1.2,1.2
		c-1.3,0.8-2.7,2-3.9,2.7c-0.6,0.9-1.5,2.5-1.5,3.1c0,0.2,0.1,0.3,0.4,0.3c1.3,0,8-7.3,10.2-10c1.3-2.8,2.3-4.8,3.3-6.1
		c0.5-0.6,0.8-0.9,1.3-0.9c0.3,0,0.6,0.1,0.8,0.4c0.1,0.2,0.4,0.2,0.4,0.4c0,0.5-0.4,1.1-0.7,1.7c-0.4,0.6-2.7,4.1-4,6.1
		c-2.8,4.6-5,9.9-1.1,9.9c3.1,0,8.5-2.7,10.4-4C116.7,45.3,117,45.4,117,45.7z M74.5,43.3c0.2-0.3,0.3-0.6,0.6-0.8
		c-2,0.9-4.8,3.2-4.8,4.6c0,0.4,0.2,0.6,0.5,0.6c0.6,0,1.7-0.8,2.4-1.4c0.2-0.9,0.5-1.7,0.9-2.5C74.2,43.6,74.4,43.5,74.5,43.3z
		 M90.3,74.1c0-4.2-3.5-7.7-7.7-7.7c-4.2,0-7.8,3.5-7.8,7.7c0,4.3,3.5,7.7,7.8,7.7C86.8,81.8,90.3,78.4,90.3,74.1z M91.7,6.6
		c0-0.6,0.5-0.6,1.4-1.6c0.8-1,1.5-1.8,2-2.8c0.3-0.5,0.3-0.8,0.6-0.8c0.3,0,0.4,0.3,0.4,0.8C96,3.8,93.8,7,92.3,7
		C92,7,91.7,6.8,91.7,6.6z"/>
</g>
</svg>
